<?xml version="1.0" encoding="UTF-8" standalone="no"?>
<svg
   viewBox="11.5 237.1035 478.5919 206.3845"
   version="1.1"
   id="svg17"
   sodipodi:docname="casita-del-zorro.svg"
   inkscape:version="1.3.2 (091e20e, 2023-11-25, custom)"
   xmlns:inkscape="http://www.inkscape.org/namespaces/inkscape"
   xmlns:sodipodi="http://sodipodi.sourceforge.net/DTD/sodipodi-0.dtd"
   xmlns="http://www.w3.org/2000/svg"
   xmlns:svg="http://www.w3.org/2000/svg">
  <defs
     id="defs17" />
  <sodipodi:namedview
     id="namedview17"
     pagecolor="#ffffff"
     bordercolor="#000000"
     borderopacity="0.25"
     inkscape:showpageshadow="2"
     inkscape:pageopacity="0.0"
     inkscape:pagecheckerboard="0"
     inkscape:deskcolor="#d1d1d1"
     inkscape:zoom="2.9440532"
     inkscape:cx="239.12611"
     inkscape:cy="103.08917"
     inkscape:window-width="1920"
     inkscape:window-height="1009"
     inkscape:window-x="-8"
     inkscape:window-y="-8"
     inkscape:window-maximized="1"
     inkscape:current-layer="svg17" />
  <g
     style=""
     transform="matrix(0.7969129085540771, 0, 0, 0.7757339477539062, 2.3354969024658203, 99.4589614868164)"
     id="g1">
    <path
       style="opacity:1"
       fill="#080808"
       d="m 155.5,177.5 c 10.006,-0.166 20.006,0 30,0.5 12.876,1.926 20.11884,12.26193 14.90984,24.00293 C 145.74684,275.66593 99.492737,342.7222 47.155737,418.0592 51.472643,418.7262 39.1667,422.667 40.5,422 c 21.0107,-12.671 43.770229,-24.52633 67.42623,-31.18933 15.917,-2.361 33.62192,-4.3416 49.27869,-2 19.058,3.412 36.35308,9.26733 55.29508,13.18933 10.591,1.741 21.258,2.741 32,3 1.537,1.11 2.203,2.61 2,4.5 -11.338,0.167 -22.672,0 -34,-0.5 -19.407,-3.281 -38.741,-6.948 -58,-11 -26.051,-3.375 -50.717,0.959 -74,13 -19.9763,9.652 -39.3096,20.318 -58,32 -3.5915,0.789 -7.0915,0.622 -10.5,-0.5 -0.6667,-1.667 -0.6667,-3.333 0,-5 35.6667,-50.667 71.3333,-101.333 107,-152 18.181,-25.025 36.848,-49.692 56,-74 4.095,-5.757 7.762,-11.757 11,-18 1.786,-7.061 -1.048,-9.35227 -8.5,-8.62427 -7.667,-0.667 -13.62808,0.20873 -21.29508,0.87573 -17.812,1.755 -36.07123,4.56861 -53.92623,5.81361 -2.2254,-0.065 -5.67079,-3.46307 -7.77869,-4.06507 -1.4004,-2.282 -0.7337,-3.782 2,-4.5 19.858,-1.42 39.524,-3.253 59,-5.5 z"
       id="path1"
       sodipodi:nodetypes="ccccccccccccccccccccccccc" />
  </g>
  <g
     id="g2">
    <path
       id="path2"
       style="opacity:1"
       d="M 235.52148 301.26561 C 234.225 301.20664 232.88475 301.28448 231.5 301.49998 C 229.229 303.26598 227.063 305.26602 225 307.49998 C 221.685 315.16098 220.685 323.16102 222 331.49998 C 223.174 334.21498 224.508 336.54802 226 338.49998 C 219.53204 347.31098 211.03196 352.97702 200.5 355.49998 C 197.935 355.10098 196.601 353.60098 196.5 350.99998 C 197.884 345.58902 198.551 340.08898 198.5 334.49998 C 199.277 324.85202 196.60996 316.35198 190.5 308.99998 C 176.05204 302.36202 162.05196 303.36202 148.5 311.99998 C 133.82004 325.70494 127.654 342.53906 130 362.49998 C 131.757 371.57798 136.59004 378.41102 144.5 382.99998 C 163.94192 388.61798 179.27504 382.95194 190.5 365.99998 C 208.77292 365.52998 222.44004 357.36394 231.5 341.49998 C 238.47596 340.33602 245.47604 340.16902 252.5 340.99998 C 253.097 342.06198 253.43 343.22802 253.5 344.49998 C 249.601 359.02294 248.767 373.69006 251 388.49998 C 253.089 396.41698 258.25504 400.41698 266.5 400.49998 C 278.40796 398.96302 288.24204 393.62998 296 384.49998 C 305.20996 371.41206 311.71 357.07894 315.5 341.49998 C 321.05396 340.19402 326.55404 340.19402 332 341.49998 C 331.237 352.80494 330.404 364.13806 329.5 375.49998 C 328.802 397.6479 338.80208 404.81498 359.5 396.99998 C 371.76696 389.72702 380.93404 379.56094 387 366.49998 C 389.669 373.50198 394.16904 379.00202 400.5 382.99998 C 420.01592 388.57298 435.34904 382.90594 446.5 365.99998 C 463.81192 365.42598 477.31204 357.92594 487 343.49998 C 490.286 339.05202 490.953 334.38498 489 329.49998 L 480 341.49998 C 474.47904 348.02598 467.64596 352.52602 459.5 354.99998 C 455.451 356.48398 453.451 355.15098 453.5 350.99998 C 455.308 342.91302 455.808 334.74598 455 326.49998 C 453.638 316.48802 448.47196 309.32098 439.5 304.99998 C 426.44204 303.07802 414.44196 305.74402 403.5 312.99998 C 393.16904 324.16494 387.002 337.33106 385 352.49998 C 378.73704 366.09194 369.56996 377.25902 357.5 385.99998 C 355.5 386.66698 353.5 386.66698 351.5 385.99998 C 349.022 382.99902 348.022 379.49898 348.5 375.49998 C 350.009 365.39702 351.009 355.22994 351.5 344.99998 C 351.545 341.07902 351.045 337.24498 350 333.49998 C 349.167 331.33302 347.667 329.83298 345.5 328.99998 C 337.31704 328.39198 329.31696 329.05802 321.5 330.99998 C 320.593 324.90002 321.76 319.06598 325 313.49998 C 325.667 310.50002 325.667 307.49998 325 304.49998 C 320.936 301.71002 316.436 300.87702 311.5 301.99998 C 303.54104 306.42098 300.207 313.25402 301.5 322.49998 C 299.721 331.37798 303.05404 337.21102 311.5 339.99998 C 304.81704 356.37194 295.14996 370.70606 282.5 382.99998 C 280.319 384.83998 277.819 386.00698 275 386.49998 C 272.849 386.35698 271.182 385.35698 270 383.49998 C 269.386 371.28106 269.886 359.11394 271.5 346.99998 C 271.577 342.08302 271.077 337.24998 270 332.49998 C 267.131 329.11402 263.464 327.78102 259 328.49998 C 253.20904 329.76698 247.37596 330.60098 241.5 330.99998 C 240.409 328.93602 240.242 326.76898 241 324.49998 C 243.917 318.42802 245.584 312.09498 246 305.49998 C 242.904 302.85402 239.41103 301.44252 235.52148 301.26561 z M 430.98828 316.45897 C 432.11111 316.42026 433.11538 316.76762 434 317.49998 C 435.275 319.71698 436.275 322.051 437 324.49998 C 437.667 330.49998 437.667 336.5 437 342.49998 C 436.333 343.83298 435.667 345.167 435 346.49998 C 427.89602 339.241 425.562 330.57496 428 320.49998 C 428.662 319.016 429.496 317.68298 430.5 316.49998 C 430.66525 316.47873 430.82788 316.4645 430.98828 316.45897 z M 174.5 316.49998 C 176.017 316.51098 177.184 317.17699 178 318.49998 C 182.446 327.47598 182.612 336.47599 178.5 345.49998 C 174.473 342.11999 171.973 337.78598 171 332.49998 C 169.622 326.49199 170.789 321.15898 174.5 316.49998 z M 152.5 332.49998 C 155.221 337.77298 158.054 343.10601 161 348.49998 C 165.042 352.70998 169.208 356.71001 173.5 360.49998 C 170.583 368.91798 164.74997 373.91801 156 375.49998 C 153.966 375.64598 152.299 374.97998 151 373.49998 C 150 371.16701 149 368.83298 148 366.49998 C 146.264 354.66404 147.764 343.32995 152.5 332.49998 z M 408.5 332.49998 C 411.677 338.49698 415.177 344.49702 419 350.49998 L 429.5 360.99998 C 426.408 368.92998 420.74196 373.76302 412.5 375.49998 C 410.519 375.56298 408.852 374.89598 407.5 373.49998 C 403.771 365.21302 402.605 356.54598 404 347.49998 C 405.41 342.44102 406.91 337.44098 408.5 332.49998 z " />
  </g>
  <path
     d="M 176.106 286.145 Q 176.82 286.145 177.313 286.621 Q 177.806 287.097 177.806 287.845 Q 177.806 288.559 177.313 289.018 Q 176.82 289.477 176.106 289.477 L 164.682 289.477 Q 163.934 289.477 163.441 288.984 Q 162.948 288.491 162.948 287.743 L 162.948 267.411 Q 162.948 266.663 163.458 266.17 Q 163.968 265.677 164.75 265.677 Q 165.464 265.677 165.974 266.17 Q 166.484 266.663 166.484 267.411 L 166.484 286.757 L 165.77 286.145 Z"
     style="fill: rgb(51, 51, 51);"
     id="path7" />
  <path
     d="M 196.104 270.097 L 188.42 288.491 Q 188.25 289.001 187.825 289.307 Q 187.4 289.613 186.924 289.613 Q 186.176 289.613 185.802 289.188 Q 185.428 288.763 185.394 288.151 Q 185.394 287.879 185.496 287.573 L 194.132 266.697 Q 194.37 266.119 194.829 265.813 Q 195.288 265.507 195.832 265.575 Q 196.342 265.575 196.784 265.864 Q 197.226 266.153 197.396 266.697 L 205.964 287.267 Q 206.1 287.607 206.1 287.947 Q 206.1 288.695 205.607 289.154 Q 205.114 289.613 204.502 289.613 Q 203.992 289.613 203.567 289.307 Q 203.142 289.001 202.938 288.457 L 195.22 270.199 Z M 189.814 283.629 L 191.31 280.365 L 200.966 280.365 L 201.544 283.629 Z"
     style="fill: rgb(51, 51, 51);"
     id="path8" />
  <path
     d="M 247.549 267.037 Q 248.297 267.411 248.416 268.193 Q 248.535 268.975 248.025 269.621 Q 247.651 270.131 247.056 270.199 Q 246.461 270.267 245.883 269.961 Q 244.897 269.451 243.809 269.145 Q 242.721 268.839 241.497 268.839 Q 239.559 268.839 238.012 269.468 Q 236.465 270.097 235.343 271.27 Q 234.221 272.443 233.609 274.041 Q 232.997 275.639 232.997 277.577 Q 232.997 279.753 233.66 281.402 Q 234.323 283.051 235.462 284.173 Q 236.601 285.295 238.148 285.873 Q 239.695 286.451 241.497 286.451 Q 242.653 286.451 243.758 286.179 Q 244.863 285.907 245.849 285.329 Q 246.461 285.023 247.056 285.108 Q 247.651 285.193 248.025 285.703 Q 248.603 286.417 248.45 287.148 Q 248.297 287.879 247.583 288.253 Q 246.733 288.729 245.713 289.069 Q 244.693 289.409 243.639 289.613 Q 242.585 289.817 241.497 289.817 Q 239.049 289.817 236.873 289.001 Q 234.697 288.185 232.997 286.621 Q 231.297 285.057 230.328 282.779 Q 229.359 280.501 229.359 277.577 Q 229.359 274.959 230.26 272.732 Q 231.161 270.505 232.81 268.89 Q 234.459 267.275 236.669 266.374 Q 238.879 265.473 241.497 265.473 Q 243.129 265.473 244.676 265.881 Q 246.223 266.289 247.549 267.037 Z"
     style="fill: rgb(51, 51, 51);"
     id="path9" />
  <path
     d="M 266.682 270.097 L 258.998 288.491 Q 258.828 289.001 258.403 289.307 Q 257.978 289.613 257.502 289.613 Q 256.754 289.613 256.38 289.188 Q 256.006 288.763 255.972 288.151 Q 255.972 287.879 256.074 287.573 L 264.71 266.697 Q 264.948 266.119 265.407 265.813 Q 265.866 265.507 266.41 265.575 Q 266.92 265.575 267.362 265.864 Q 267.804 266.153 267.974 266.697 L 276.542 287.267 Q 276.678 287.607 276.678 287.947 Q 276.678 288.695 276.185 289.154 Q 275.692 289.613 275.08 289.613 Q 274.57 289.613 274.145 289.307 Q 273.72 289.001 273.516 288.457 L 265.798 270.199 Z M 260.392 283.629 L 261.888 280.365 L 271.544 280.365 L 272.122 283.629 Z"
     style="fill: rgb(51, 51, 51);"
     id="path10" />
  <path
     d="M 293.211 289.817 Q 290.763 289.817 288.859 289.137 Q 286.955 288.457 285.187 286.893 Q 284.847 286.621 284.66 286.23 Q 284.473 285.839 284.473 285.431 Q 284.473 284.785 284.949 284.275 Q 285.425 283.765 286.139 283.765 Q 286.683 283.765 287.125 284.139 Q 288.451 285.329 289.862 285.941 Q 291.273 286.553 293.177 286.553 Q 294.537 286.553 295.676 286.111 Q 296.815 285.669 297.495 284.921 Q 298.175 284.173 298.175 283.187 Q 298.175 281.997 297.478 281.181 Q 296.781 280.365 295.472 279.838 Q 294.163 279.311 292.327 278.937 Q 290.627 278.631 289.284 278.087 Q 287.941 277.543 286.989 276.71 Q 286.037 275.877 285.527 274.721 Q 285.017 273.565 285.017 272.035 Q 285.017 269.961 286.105 268.465 Q 287.193 266.969 289.063 266.153 Q 290.933 265.337 293.279 265.337 Q 295.421 265.337 297.291 266.017 Q 299.161 266.697 300.317 267.785 Q 301.133 268.499 301.133 269.315 Q 301.133 269.927 300.64 270.454 Q 300.147 270.981 299.467 270.981 Q 299.025 270.981 298.685 270.709 Q 298.107 270.131 297.206 269.672 Q 296.305 269.213 295.268 268.907 Q 294.231 268.601 293.279 268.601 Q 291.749 268.601 290.661 269.026 Q 289.573 269.451 288.978 270.182 Q 288.383 270.913 288.383 271.899 Q 288.383 273.055 289.063 273.82 Q 289.743 274.585 290.933 275.044 Q 292.123 275.503 293.653 275.843 Q 295.523 276.251 297.002 276.761 Q 298.481 277.271 299.501 278.07 Q 300.521 278.869 301.048 280.076 Q 301.575 281.283 301.575 283.017 Q 301.575 285.057 300.436 286.587 Q 299.297 288.117 297.393 288.967 Q 295.489 289.817 293.211 289.817 Z"
     style="fill: rgb(51, 51, 51);"
     id="path11" />
  <path
     d="M 315.234 287.743 Q 315.234 288.491 314.707 288.984 Q 314.18 289.477 313.466 289.477 Q 312.684 289.477 312.191 288.984 Q 311.698 288.491 311.698 287.743 L 311.698 267.411 Q 311.698 266.663 312.208 266.17 Q 312.718 265.677 313.5 265.677 Q 314.214 265.677 314.724 266.17 Q 315.234 266.663 315.234 267.411 Z"
     style="fill: rgb(51, 51, 51);"
     id="path12" />
  <path
     d="M 334.385 289.477 Q 333.603 289.477 333.11 288.984 Q 332.617 288.491 332.617 287.743 L 332.617 267.377 L 336.255 267.377 L 336.255 287.743 Q 336.255 288.491 335.728 288.984 Q 335.201 289.477 334.385 289.477 Z M 326.701 268.941 Q 325.953 268.941 325.46 268.482 Q 324.967 268.023 324.967 267.275 Q 324.967 266.561 325.46 266.119 Q 325.953 265.677 326.701 265.677 L 342.171 265.677 Q 342.885 265.677 343.378 266.136 Q 343.871 266.595 343.871 267.309 Q 343.871 268.057 343.378 268.499 Q 342.885 268.941 342.171 268.941 Z"
     style="fill: rgb(51, 51, 51);"
     id="path13" />
  <path
     d="M 360.386 270.097 L 352.702 288.491 Q 352.532 289.001 352.107 289.307 Q 351.682 289.613 351.206 289.613 Q 350.458 289.613 350.084 289.188 Q 349.71 288.763 349.676 288.151 Q 349.676 287.879 349.778 287.573 L 358.414 266.697 Q 358.652 266.119 359.111 265.813 Q 359.57 265.507 360.114 265.575 Q 360.624 265.575 361.066 265.864 Q 361.508 266.153 361.678 266.697 L 370.246 287.267 Q 370.382 287.607 370.382 287.947 Q 370.382 288.695 369.889 289.154 Q 369.396 289.613 368.784 289.613 Q 368.274 289.613 367.849 289.307 Q 367.424 289.001 367.22 288.457 L 359.502 270.199 Z M 354.096 283.629 L 355.592 280.365 L 365.248 280.365 L 365.826 283.629 Z"
     style="fill: rgb(51, 51, 51);"
     id="path14" />
  <path
     d="M 404.962 265.677 Q 407.444 265.677 409.348 266.612 Q 411.252 267.547 412.527 269.196 Q 413.802 270.845 414.448 273.004 Q 415.094 275.163 415.094 277.577 Q 415.094 280.875 413.938 283.578 Q 412.782 286.281 410.538 287.879 Q 408.294 289.477 404.962 289.477 L 396.666 289.477 Q 395.952 289.477 395.442 288.984 Q 394.932 288.491 394.932 287.743 L 394.932 267.411 Q 394.932 266.663 395.442 266.17 Q 395.952 265.677 396.666 265.677 Z M 404.622 286.213 Q 407.036 286.213 408.532 285.023 Q 410.028 283.833 410.725 281.878 Q 411.422 279.923 411.422 277.577 Q 411.422 275.843 411.031 274.296 Q 410.64 272.749 409.807 271.542 Q 408.974 270.335 407.699 269.638 Q 406.424 268.941 404.622 268.941 L 398.162 268.941 L 398.468 268.635 L 398.468 286.553 L 398.264 286.213 Z"
     style="fill: rgb(51, 51, 51);"
     id="path15" />
  <path
     d="M 426.916 265.677 L 438.68 265.677 Q 439.394 265.677 439.887 266.153 Q 440.38 266.629 440.38 267.343 Q 440.38 268.057 439.887 268.499 Q 439.394 268.941 438.68 268.941 L 428.412 268.941 L 428.718 268.363 L 428.718 275.979 L 428.412 275.673 L 437.15 275.673 Q 437.864 275.673 438.357 276.132 Q 438.85 276.591 438.85 277.339 Q 438.85 278.053 438.357 278.495 Q 437.864 278.937 437.15 278.937 L 428.514 278.937 L 428.718 278.631 L 428.718 286.485 L 428.48 286.213 L 438.68 286.213 Q 439.394 286.213 439.887 286.706 Q 440.38 287.199 440.38 287.845 Q 440.38 288.559 439.887 289.018 Q 439.394 289.477 438.68 289.477 L 426.916 289.477 Q 426.202 289.477 425.692 288.984 Q 425.182 288.491 425.182 287.743 L 425.182 267.411 Q 425.182 266.663 425.692 266.17 Q 426.202 265.677 426.916 265.677 Z"
     style="fill: rgb(51, 51, 51);"
     id="path16" />
  <path
     d="M 463.653 286.145 Q 464.367 286.145 464.86 286.621 Q 465.353 287.097 465.353 287.845 Q 465.353 288.559 464.86 289.018 Q 464.367 289.477 463.653 289.477 L 452.229 289.477 Q 451.481 289.477 450.988 288.984 Q 450.495 288.491 450.495 287.743 L 450.495 267.411 Q 450.495 266.663 451.005 266.17 Q 451.515 265.677 452.297 265.677 Q 453.011 265.677 453.521 266.17 Q 454.031 266.663 454.031 267.411 L 454.031 286.757 L 453.317 286.145 Z"
     style="fill: rgb(51, 51, 51);"
     id="path17" />
</svg>
